<svg width="35" height="35" viewBox="0 0 35 35" fill="none" xmlns="http://www.w3.org/2000/svg">
<g id="jam:github">
<path id="Vector" d="M30.45 4.51936C29.3811 3.45041 28.0948 2.91666 26.5898 2.91666H8.3796C6.8746 2.91666 5.58835 3.45041 4.5194 4.51936C3.45044 5.58832 2.91669 6.87457 2.91669 8.37957V26.5898C2.91669 28.0948 3.45044 29.381 4.5194 30.45C5.58835 31.5189 6.8746 32.0527 8.3796 32.0527H12.6292C12.9063 32.0527 13.1148 32.0425 13.2548 32.0235C13.4177 31.9909 13.5647 31.904 13.6719 31.7771C13.8104 31.6312 13.8804 31.4198 13.8804 31.1427L13.8702 29.8521C13.8644 29.0296 13.8615 28.3792 13.8615 27.8979L13.424 27.9737C13.1469 28.0248 12.7969 28.0467 12.3725 28.0408C11.9302 28.0327 11.4893 27.9883 11.0542 27.9081C10.591 27.8226 10.155 27.6276 9.78252 27.3394C9.39241 27.0442 9.10144 26.6373 8.94835 26.1727L8.75877 25.7352C8.59898 25.3901 8.39823 25.0655 8.16085 24.7683C7.8896 24.4139 7.61398 24.1748 7.33544 24.0479L7.20419 23.9531C7.11267 23.8876 7.02942 23.8112 6.95627 23.7256C6.8864 23.6462 6.82889 23.5567 6.78565 23.4602C6.74773 23.3712 6.77981 23.2983 6.88044 23.2414C6.98252 23.1831 7.16481 23.1554 7.43169 23.1554L7.81085 23.2137C8.06315 23.2633 8.37669 23.415 8.74856 23.6673C9.1249 23.9239 9.43927 24.2611 9.66877 24.6546C9.96044 25.1723 10.3104 25.5675 10.7217 25.8402C11.1329 26.1114 11.5471 26.2485 11.9642 26.2485C12.3813 26.2485 12.7415 26.2164 13.0463 26.1537C13.341 26.0928 13.6274 25.9968 13.8994 25.8679C14.0131 25.0221 14.3223 24.3687 14.8284 23.9137C14.1727 23.8495 13.5228 23.7354 12.8844 23.5725C12.2614 23.4013 11.6622 23.153 11.1009 22.8331C10.5135 22.5133 9.99471 22.0813 9.57398 21.5614C9.17002 21.0554 8.83752 20.3919 8.57794 19.5708C8.31981 18.7483 8.19002 17.7989 8.19002 16.7242C8.19002 15.1944 8.68877 13.8921 9.68773 12.8158C9.22106 11.6667 9.26481 10.376 9.82044 8.94832C10.1879 8.83312 10.7319 8.91916 11.4523 9.20353C12.1727 9.48791 12.7006 9.73145 13.0361 9.9327C13.3715 10.1369 13.6398 10.3075 13.8425 10.446C15.0281 10.1161 16.2533 9.95024 17.484 9.95311C18.7367 9.95311 19.95 10.1179 21.1269 10.446L21.8473 9.99103C22.4015 9.65832 22.986 9.37901 23.5929 9.15686C24.2638 8.90311 24.7742 8.83457 25.13 8.94832C25.6988 10.3775 25.7484 11.6667 25.2802 12.8173C26.2792 13.8921 26.7794 15.1944 26.7794 16.7256C26.7794 17.8004 26.6496 18.7527 26.39 19.5796C26.1319 20.4079 25.7965 21.0714 25.3852 21.5717C24.9571 22.0848 24.4361 22.5128 23.8496 22.8331C23.2371 23.1744 22.6421 23.4208 22.0661 23.5725C21.4277 23.7359 20.7779 23.8505 20.1221 23.9152C20.7784 24.4839 21.1079 25.3808 21.1079 26.6073V31.1427C21.1079 31.3571 21.1386 31.5306 21.2027 31.6633C21.2322 31.7273 21.2743 31.7846 21.3264 31.832C21.3785 31.8793 21.4396 31.9157 21.5061 31.9389C21.6461 31.9885 21.7686 32.0206 21.8765 32.0323C21.9844 32.0469 22.139 32.0512 22.3402 32.0512H26.5898C28.0948 32.0512 29.3811 31.5175 30.45 30.4485C31.5175 29.381 32.0527 28.0933 32.0527 26.5883V8.37957C32.0527 6.87457 31.519 5.58832 30.45 4.51936Z" fill="#F04493"/>
</g>
</svg>
