<svg width="35" height="35" viewBox="0 0 35 35" fill="none" xmlns="http://www.w3.org/2000/svg">
<g id="mdi:linkedin">
<path id="Vector" d="M27.7083 4.375C28.4819 4.375 29.2237 4.68229 29.7707 5.22927C30.3177 5.77625 30.625 6.51812 30.625 7.29167V27.7083C30.625 28.4819 30.3177 29.2237 29.7707 29.7707C29.2237 30.3177 28.4819 30.625 27.7083 30.625H7.29167C6.51812 30.625 5.77625 30.3177 5.22927 29.7707C4.68229 29.2237 4.375 28.4819 4.375 27.7083V7.29167C4.375 6.51812 4.68229 5.77625 5.22927 5.22927C5.77625 4.68229 6.51812 4.375 7.29167 4.375H27.7083ZM26.9792 26.9792V19.25C26.9792 17.9891 26.4783 16.7799 25.5867 15.8883C24.6951 14.9967 23.4859 14.4958 22.225 14.4958C20.9854 14.4958 19.5417 15.2542 18.8417 16.3917V14.7729H14.7729V26.9792H18.8417V19.7896C18.8417 18.6667 19.7458 17.7479 20.8688 17.7479C21.4102 17.7479 21.9295 17.963 22.3124 18.3459C22.6953 18.7288 22.9104 19.2481 22.9104 19.7896V26.9792H26.9792ZM10.0333 12.4833C10.6831 12.4833 11.3063 12.2252 11.7657 11.7657C12.2252 11.3063 12.4833 10.6831 12.4833 10.0333C12.4833 8.67708 11.3896 7.56875 10.0333 7.56875C9.37969 7.56875 8.75281 7.82841 8.29061 8.29061C7.82841 8.75281 7.56875 9.37969 7.56875 10.0333C7.56875 11.3896 8.67708 12.4833 10.0333 12.4833ZM12.0604 26.9792V14.7729H8.02083V26.9792H12.0604Z" fill="#F04493"/>
</g>
</svg>
